<svg xmlns="http://www.w3.org/2000/svg" xmlns:xlink="http://www.w3.org/1999/xlink" width="85" height="85" viewBox="0 0 85 85">
  <defs>
    <clipPath id="clip-path">
      <rect id="Rectangle_1317" data-name="Rectangle 1317" width="85" height="85" transform="translate(65 33.615)" fill="none"/>
    </clipPath>
    <clipPath id="clip-path-2">
      <rect id="Rectangle_1248" data-name="Rectangle 1248" width="55.903" height="66.192" fill="#fdcb0e"/>
    </clipPath>
  </defs>
  <g id="surrender_a_pet_icon" data-name="surrender a pet icon" transform="translate(-65 -33.615)" clip-path="url(#clip-path)">
    <g id="Group_3750" data-name="Group 3750" transform="translate(-327 -2366.309)">
      <g id="Group_3731" data-name="Group 3731" transform="translate(407 2412)">
        <g id="Group_3730" data-name="Group 3730" clip-path="url(#clip-path-2)">
          <path id="Path_315" data-name="Path 315" d="M4.143,257.013c0-2.695-.417-13-2.754-13C0,247.048,0,254.463,0,258.422,1.453,263.479,3.347,268.2,5.179,273c2.586,6.686,12.927,10.3,12.85,10.651l8.813,7.046.1-5.31c1.189-8.939-3.78-19.482-12.788-18.7-5.513-2.591-5.861-9.551-9.9-9.138-1.819.183-.311,1.808.209,2.735,1.418,2.523,1.8,4.564,2.773,5.807.515.659,1.295,1.694,1.482,1.688-1.69.05-2.745-2.432-3.3-3.938a29.378,29.378,0,0,0-2.191-4.274c-.75-1.357-.668-2.489.919-2.557" transform="translate(0 -224.505)" fill="#fdcb0e" fill-rule="evenodd"/>
          <path id="Path_316" data-name="Path 316" d="M383.058,257.013c0-2.695.417-13,2.753-13,1.389,3.034,1.389,10.449,1.389,14.408-1.453,5.057-3.347,9.775-5.179,14.578-2.586,6.686-12.927,10.3-12.85,10.651l-8.813,7.046-.1-5.31c-1.189-8.939,3.78-19.482,12.788-18.7,5.513-2.591,5.861-9.551,9.9-9.138,1.819.183.311,1.808-.209,2.735-1.418,2.523-1.8,4.564-2.773,5.807-.515.659-1.294,1.694-1.482,1.688,1.69.05,2.745-2.432,3.3-3.938a29.378,29.378,0,0,1,2.191-4.274c.75-1.357.668-2.489-.919-2.557" transform="translate(-331.298 -224.505)" fill="#fdcb0e" fill-rule="evenodd"/>
          <path id="Path_317" data-name="Path 317" d="M369.836,0c-2.8,0-5.064,3.469-5.064,7.748s2.267,7.748,5.064,7.748,5.064-3.469,5.064-7.748S372.633,0,369.836,0" transform="translate(-335.608)" fill="#fdcb0e"/>
          <path id="Path_318" data-name="Path 318" d="M489.868,139.332c-2.75-.507-5.548,2.159-6.248,5.956s.962,7.286,3.712,7.793,5.548-2.159,6.248-5.956-.962-7.286-3.712-7.793" transform="translate(-444.807 -128.136)" fill="#fdcb0e"/>
          <path id="Path_319" data-name="Path 319" d="M212.834,0c-2.8,0-5.064,3.469-5.064,7.748s2.267,7.748,5.064,7.748,5.064-3.469,5.064-7.748S215.631,0,212.834,0" transform="translate(-191.159)" fill="#fdcb0e"/>
          <path id="Path_320" data-name="Path 320" d="M91.046,139.332c-2.75.507-4.412,4-3.712,7.793s3.5,6.463,6.248,5.956,4.412-4,3.712-7.793-3.5-6.463-6.248-5.956" transform="translate(-80.204 -128.136)" fill="#fdcb0e"/>
          <path id="Path_321" data-name="Path 321" d="M185.932,229.094a3.218,3.218,0,0,0-.611-.509,11.254,11.254,0,0,1-3.256-2.579,10.705,10.705,0,0,1-1.5-3.581c-1.581-6.125-9.089-6.027-9.089-6.027s-7.508-.1-9.089,6.027a10.71,10.71,0,0,1-1.5,3.581,11.253,11.253,0,0,1-3.256,2.579,3.219,3.219,0,0,0-.611.509c-2.429,2.651-.073,5.879,2.242,7.656,5.05,3.878,12.213,3.458,12.213,3.458s7.163.42,12.213-3.458c2.315-1.777,4.671-5,2.242-7.656" transform="translate(-143.525 -199.097)" fill="#fdcb0e"/>
        </g>
      </g>
    </g>
  </g>
</svg>
