<svg xmlns="http://www.w3.org/2000/svg" xmlns:xlink="http://www.w3.org/1999/xlink" width="85" height="85" viewBox="0 0 85 85">
  <defs>
    <clipPath id="clip-path">
      <rect id="Rectangle_1318" data-name="Rectangle 1318" width="85" height="85" transform="translate(68 33.615)" fill="none"/>
    </clipPath>
    <clipPath id="clip-path-2">
      <rect id="Rectangle_1249" data-name="Rectangle 1249" width="79.972" height="51.212" transform="translate(0 0)" fill="#fdcb0e"/>
    </clipPath>
  </defs>
  <g id="education_and_tours_icon" data-name="education and tours icon" transform="translate(-68 -33.615)" clip-path="url(#clip-path)">
    <g id="Group_3749" data-name="Group 3749" transform="translate(71 52.182)">
      <g id="Group_3733" data-name="Group 3733" clip-path="url(#clip-path-2)">
        <path id="Path_322" data-name="Path 322" d="M79.159,27.83A8.821,8.821,0,0,0,72.336,19.6l-4.705-1.736V4.191A3.907,3.907,0,0,0,64.7.408,17.182,17.182,0,0,0,60.607,0,35.207,35.207,0,0,0,49.569,1.956a33.722,33.722,0,0,0-9.583,5.377A33.735,33.735,0,0,0,30.4,1.956,35.217,35.217,0,0,0,19.364,0a17.182,17.182,0,0,0-4.1.408A3.907,3.907,0,0,0,12.34,4.191V17.866L7.635,19.6A8.821,8.821,0,0,0,.812,27.83L0,47.3l12.831,2.839,3.991-6.467c.093,0,.2,0,.345,0a42.946,42.946,0,0,1,10.8,1.731,25.372,25.372,0,0,1,8.5,4.3,6.863,6.863,0,0,0,2.721,1.426l.008,0a3.915,3.915,0,0,0,1.565,0l.009,0A6.853,6.853,0,0,0,43.5,49.706,25.377,25.377,0,0,1,52,45.4a40.962,40.962,0,0,1,11.149-1.728l3.992,6.468L79.972,47.3Zm-28.18,13.8C44.344,43.425,40.59,47.3,39.986,47.3s-4.358-3.879-10.994-5.674a51.281,51.281,0,0,0-10.379-1.822l8.072-7.992a4.526,4.526,0,0,0-6.369-6.433l-6.558,6.493L12.1,30.2l4.152-4.111V4.191s4.78-1.24,12.919,1.473a26.036,26.036,0,0,1,9.737,6V41.505s.132,1.139,1.082,1.139,1.081-1.139,1.081-1.139V11.662a26.052,26.052,0,0,1,9.737-6c8.139-2.713,12.919-1.473,12.919-1.473V26.084L67.876,30.2l-1.663,1.68-6.557-6.493a4.527,4.527,0,0,0-6.37,6.433l8.072,7.992A51.27,51.27,0,0,0,50.979,41.63" fill="#fdcb0e"/>
      </g>
    </g>
  </g>
</svg>
